<mxfile host="app.diagrams.net" modified="2023-07-29T09:07:58.016Z" agent="Mozilla/5.0 (Windows NT 10.0; Win64; x64) AppleWebKit/537.36 (KHTML, like Gecko) Chrome/114.0.0.0 Safari/537.36" etag="qzSq7V_GQCyUMJ6c8kTJ" version="21.3.3" type="device">
  <diagram id="9a_6c2zzZ4pp_TCRgNKT" name="Страница 1">
    <mxGraphModel dx="880" dy="484" grid="1" gridSize="10" guides="1" tooltips="1" connect="1" arrows="1" fold="1" page="1" pageScale="1" pageWidth="827" pageHeight="1169" math="0" shadow="0">
      <root>
        <mxCell id="0" />
        <mxCell id="1" parent="0" />
        <mxCell id="mIM4iU5Xsjk0vTkXvOuR-3" value="" style="edgeStyle=orthogonalEdgeStyle;rounded=0;orthogonalLoop=1;jettySize=auto;html=1;" edge="1" parent="1" source="wlCHqa03lk-nQp9EEn0N-1" target="mIM4iU5Xsjk0vTkXvOuR-2">
          <mxGeometry relative="1" as="geometry" />
        </mxCell>
        <mxCell id="wlCHqa03lk-nQp9EEn0N-1" value="Start" style="ellipse;whiteSpace=wrap;html=1;" parent="1" vertex="1">
          <mxGeometry x="350" y="150" width="120" height="80" as="geometry" />
        </mxCell>
        <mxCell id="mIM4iU5Xsjk0vTkXvOuR-1" value="&#xa;&lt;em style=&quot;box-sizing: border-box; color: rgb(44, 45, 48); font-family: Roboto, &amp;quot;San Francisco&amp;quot;, &amp;quot;Helvetica Neue&amp;quot;, Helvetica, Arial; font-size: 15px; font-variant-ligatures: normal; font-variant-caps: normal; font-weight: 400; letter-spacing: normal; orphans: 2; text-align: start; text-indent: 0px; text-transform: none; widows: 2; word-spacing: 0px; -webkit-text-stroke-width: 0px; background-color: rgb(255, 255, 255); text-decoration-thickness: initial; text-decoration-style: initial; text-decoration-color: initial;&quot;&gt;Задача&lt;/em&gt;&lt;span style=&quot;color: rgb(44, 45, 48); font-family: Roboto, &amp;quot;San Francisco&amp;quot;, &amp;quot;Helvetica Neue&amp;quot;, Helvetica, Arial; font-size: 15px; font-style: normal; font-variant-ligatures: normal; font-variant-caps: normal; font-weight: 400; letter-spacing: normal; orphans: 2; text-align: start; text-indent: 0px; text-transform: none; widows: 2; word-spacing: 0px; -webkit-text-stroke-width: 0px; background-color: rgb(255, 255, 255); text-decoration-thickness: initial; text-decoration-style: initial; text-decoration-color: initial; float: none; display: inline !important;&quot;&gt;: Написать программу, которая из имеющегося массива строк формирует новый массив из строк, длина которых меньше, либо равна 3 символам. Первоначальный массив можно ввести с клавиатуры, либо задать на старте выполнения алгоритма. При решении не рекомендуется пользоваться коллекциями, лучше обойтись исключительно массивами.&lt;/span&gt;&#xa;&#xa;" style="rounded=0;whiteSpace=wrap;html=1;" vertex="1" parent="1">
          <mxGeometry x="20" y="10" width="790" height="110" as="geometry" />
        </mxCell>
        <mxCell id="mIM4iU5Xsjk0vTkXvOuR-5" value="" style="edgeStyle=orthogonalEdgeStyle;rounded=0;orthogonalLoop=1;jettySize=auto;html=1;" edge="1" parent="1" source="mIM4iU5Xsjk0vTkXvOuR-2" target="mIM4iU5Xsjk0vTkXvOuR-4">
          <mxGeometry relative="1" as="geometry" />
        </mxCell>
        <mxCell id="mIM4iU5Xsjk0vTkXvOuR-2" value="array1&lt;br&gt;array2&lt;br&gt;count=0" style="rounded=0;whiteSpace=wrap;html=1;" vertex="1" parent="1">
          <mxGeometry x="350" y="260" width="120" height="60" as="geometry" />
        </mxCell>
        <mxCell id="mIM4iU5Xsjk0vTkXvOuR-8" value="" style="edgeStyle=orthogonalEdgeStyle;rounded=0;orthogonalLoop=1;jettySize=auto;html=1;" edge="1" parent="1" source="mIM4iU5Xsjk0vTkXvOuR-4" target="mIM4iU5Xsjk0vTkXvOuR-6">
          <mxGeometry relative="1" as="geometry" />
        </mxCell>
        <mxCell id="mIM4iU5Xsjk0vTkXvOuR-4" value="i = 0&lt;br&gt;i &amp;lt; array1.Lenght&lt;br&gt;i++" style="rounded=0;whiteSpace=wrap;html=1;" vertex="1" parent="1">
          <mxGeometry x="350" y="350" width="120" height="60" as="geometry" />
        </mxCell>
        <mxCell id="mIM4iU5Xsjk0vTkXvOuR-9" style="edgeStyle=orthogonalEdgeStyle;rounded=0;orthogonalLoop=1;jettySize=auto;html=1;entryX=1;entryY=0.25;entryDx=0;entryDy=0;" edge="1" parent="1" source="mIM4iU5Xsjk0vTkXvOuR-6" target="mIM4iU5Xsjk0vTkXvOuR-4">
          <mxGeometry relative="1" as="geometry">
            <Array as="points">
              <mxPoint x="490" y="365" />
            </Array>
          </mxGeometry>
        </mxCell>
        <mxCell id="mIM4iU5Xsjk0vTkXvOuR-11" value="" style="edgeStyle=orthogonalEdgeStyle;rounded=0;orthogonalLoop=1;jettySize=auto;html=1;" edge="1" parent="1" source="mIM4iU5Xsjk0vTkXvOuR-6" target="mIM4iU5Xsjk0vTkXvOuR-7">
          <mxGeometry relative="1" as="geometry" />
        </mxCell>
        <mxCell id="mIM4iU5Xsjk0vTkXvOuR-6" value="if(array1[i].Lenght &amp;lt;= 3)" style="rhombus;whiteSpace=wrap;html=1;" vertex="1" parent="1">
          <mxGeometry x="327.5" y="440" width="165" height="80" as="geometry" />
        </mxCell>
        <mxCell id="mIM4iU5Xsjk0vTkXvOuR-13" style="edgeStyle=orthogonalEdgeStyle;rounded=0;orthogonalLoop=1;jettySize=auto;html=1;entryX=0;entryY=0.5;entryDx=0;entryDy=0;" edge="1" parent="1" source="mIM4iU5Xsjk0vTkXvOuR-7" target="mIM4iU5Xsjk0vTkXvOuR-4">
          <mxGeometry relative="1" as="geometry">
            <Array as="points">
              <mxPoint x="290" y="570" />
              <mxPoint x="290" y="380" />
            </Array>
          </mxGeometry>
        </mxCell>
        <mxCell id="mIM4iU5Xsjk0vTkXvOuR-7" value="array2[count] = array1[i]&lt;br&gt;count++" style="rounded=0;whiteSpace=wrap;html=1;" vertex="1" parent="1">
          <mxGeometry x="310" y="555" width="200" height="60" as="geometry" />
        </mxCell>
        <mxCell id="mIM4iU5Xsjk0vTkXvOuR-10" value="No" style="text;html=1;align=center;verticalAlign=middle;resizable=0;points=[];autosize=1;strokeColor=none;fillColor=none;" vertex="1" parent="1">
          <mxGeometry x="480" y="418" width="40" height="30" as="geometry" />
        </mxCell>
        <mxCell id="mIM4iU5Xsjk0vTkXvOuR-12" value="Yes" style="text;html=1;align=center;verticalAlign=middle;resizable=0;points=[];autosize=1;strokeColor=none;fillColor=none;" vertex="1" parent="1">
          <mxGeometry x="400" y="518" width="40" height="30" as="geometry" />
        </mxCell>
      </root>
    </mxGraphModel>
  </diagram>
</mxfile>
